<?xml version="1.0" standalone="no"?><!DOCTYPE svg PUBLIC "-//W3C//DTD SVG 1.1//EN" "http://www.w3.org/Graphics/SVG/1.1/DTD/svg11.dtd"><svg t="1668992283937" class="icon" viewBox="0 0 1024 1024" version="1.1" xmlns="http://www.w3.org/2000/svg" p-id="1020" xmlns:xlink="http://www.w3.org/1999/xlink" width="200" height="200"><path d="M640 256V192H128v640h512v-64h64v96a32 32 0 0 1-32 32h-576a32 32 0 0 1-32-32v-704a32 32 0 0 1 32-32h576a32 32 0 0 1 32 32V256h-64z m206.72 155.328H384v64h538.368a33.92 33.92 0 0 0 23.296-58.56L774.784 262.4l-43.904 46.528 115.84 102.4zM493.632 612.16h462.72v-64H417.92a33.92 33.92 0 0 0-23.296 58.56l170.88 154.368 43.904-46.528-115.84-102.4z" fill="#707070" fill-opacity=".9" p-id="1021"></path></svg>