<?xml version="1.0" standalone="no"?><!DOCTYPE svg PUBLIC "-//W3C//DTD SVG 1.1//EN" "http://www.w3.org/Graphics/SVG/1.1/DTD/svg11.dtd"><svg t="1668963548366" class="icon" viewBox="0 0 1024 1024" version="1.1" xmlns="http://www.w3.org/2000/svg" p-id="1545" xmlns:xlink="http://www.w3.org/1999/xlink" width="200" height="200"><path d="M512 79.36c112.407273 0 203.636364 91.461818 203.636364 203.636364s-91.461818 203.636364-203.636364 203.636363-203.636364-91.461818-203.636364-203.636363S399.592727 79.36 512 79.36m0-72.145455c-152.436364 0-276.014545 123.578182-276.014545 276.014546S359.563636 559.010909 512 559.010909s276.014545-123.578182 276.014545-276.014545S664.436364 7.214545 512 7.214545z" p-id="1546"></path><path d="M1005.847273 1017.018182h-72.378182c0-232.494545-189.207273-421.701818-421.701818-421.701818S90.065455 784.523636 90.065455 1017.018182H17.92C17.92 744.727273 239.476364 522.938182 512 522.938182c272.290909 0 493.847273 221.556364 493.847273 494.08z" p-id="1547"></path></svg>