<?xml version="1.0" standalone="no"?><!DOCTYPE svg PUBLIC "-//W3C//DTD SVG 1.1//EN" "http://www.w3.org/Graphics/SVG/1.1/DTD/svg11.dtd"><svg t="1669024503956" class="icon" viewBox="0 0 1024 1024" version="1.1" xmlns="http://www.w3.org/2000/svg" p-id="1399" xmlns:xlink="http://www.w3.org/1999/xlink" width="200" height="200"><path d="M930.909091 139.636364v744.727272H93.090909V139.636364h837.818182m33.745454-69.818182H59.345455C39.330909 69.818182 23.272727 85.876364 23.272727 105.890909v812.218182c0 20.014545 16.058182 36.072727 36.072728 36.072727h905.30909c20.014545 0 36.072727-16.058182 36.072728-36.072727V105.890909C1000.727273 85.876364 984.669091 69.818182 964.654545 69.818182z" p-id="1400" fill="#8992a4"></path><path d="M631.854545 385.629091h340.712728v69.818182H631.854545zM69.818182 385.629091h326.283636v69.818182H69.818182z" p-id="1401" fill="#8992a4"></path><path d="M397.498182 691.2c-6.283636 0-12.567273-1.396364-18.618182-4.421818-14.429091-6.981818-23.272727-21.410909-23.272727-37.469091V132.189091h69.818182v460.567273l63.534545-48.64a37.701818 37.701818 0 0 1 46.08 0l63.534545 48.64V132.189091h69.818182V649.309091c0 16.058182-8.843636 30.487273-23.272727 37.469091-14.429091 7.214545-31.185455 5.585455-43.985455-4.189091L512 614.4l-88.901818 68.189091c-7.447273 5.585455-16.523636 8.610909-25.6 8.610909z m94.952727-91.927273c0 0.232727 0.232727 0.232727 0 0z m39.098182 0z" p-id="1402" fill="#8992a4"></path></svg>