<?xml version="1.0" standalone="no"?><!DOCTYPE svg PUBLIC "-//W3C//DTD SVG 1.1//EN" "http://www.w3.org/Graphics/SVG/1.1/DTD/svg11.dtd"><svg t="1669108418162" class="icon" viewBox="0 0 1024 1024" version="1.1" xmlns="http://www.w3.org/2000/svg" p-id="1073" xmlns:xlink="http://www.w3.org/1999/xlink" width="200" height="200"><path d="M554.62260957 511.98061221L953.14988692 113.44328984a30.13666612 30.13666612 0 0 0 0-42.61324658 30.13666612 30.13666612 0 0 0-42.62329249 0L511.99931797 469.3573206 113.47204062 70.83004326a30.13666612 30.13666612 0 0 0-42.62329159 0 30.13666612 30.13666612 0 0 0 0 42.61324658l398.52727646 398.53732237L70.84874902 910.50788867a30.13666612 30.13666612 0 0 0 1e-8 42.66347432 30.13666612 30.13666612 0 0 0 42.62329159 0l398.52727735-398.57750421 398.52727646 398.57750421a30.13666612 30.13666612 0 0 0 42.62329248 0 30.13666612 30.13666612 0 0 0 0-42.62329161z" p-id="1074" fill="#ffffff"></path></svg>