<?xml version="1.0" standalone="no"?><!DOCTYPE svg PUBLIC "-//W3C//DTD SVG 1.1//EN" "http://www.w3.org/Graphics/SVG/1.1/DTD/svg11.dtd"><svg t="1668946562170" class="icon" viewBox="0 0 1025 1024" version="1.1" xmlns="http://www.w3.org/2000/svg" p-id="1064" xmlns:xlink="http://www.w3.org/1999/xlink" width="200.1953125" height="200"><path d="M906.092903 443.721113a50.464513 50.464513 0 0 1 50.407231 50.407232v410.727289a50.464513 50.464513 0 0 1-50.407231 50.407232H119.144366a50.464513 50.464513 0 0 1-50.407232-50.407232V494.128345a50.464513 50.464513 0 0 1 50.407232-50.407232h786.948537m0-68.737134H119.144366a119.144366 119.144366 0 0 0-119.144366 119.144366v410.727289a119.144366 119.144366 0 0 0 119.144366 119.144366h786.948537a119.144366 119.144366 0 0 0 119.144365-119.144366V494.128345a119.144366 119.144366 0 0 0-119.144365-119.144366z" p-id="1065" fill="#515151"></path><path d="M478.250067 606.341717m34.368567 0l0 0q34.368567 0 34.368567 34.368567l0 117.563412q0 34.368567-34.368567 34.368567l0 0q-34.368567 0-34.368567-34.368567l0-117.563412q0-34.368567 34.368567-34.368567Z" p-id="1066" fill="#515151"></path><path d="M512.618634 68.737134a254.751275 254.751275 0 0 1 254.751276 254.762732v46.214266H257.867359v-46.214266A254.751275 254.751275 0 0 1 512.618634 68.737134m0-68.737134C333.959366 0 189.130225 144.829142 189.130225 323.499866v114.9514h646.976819V323.499866C836.107044 144.783317 691.277902 0 512.618634 0z" p-id="1067" fill="#515151"></path></svg>