<?xml version="1.0" standalone="no"?><!DOCTYPE svg PUBLIC "-//W3C//DTD SVG 1.1//EN" "http://www.w3.org/Graphics/SVG/1.1/DTD/svg11.dtd"><svg t="1668963519161" class="icon" viewBox="0 0 1024 1024" version="1.1" xmlns="http://www.w3.org/2000/svg" p-id="1398" xmlns:xlink="http://www.w3.org/1999/xlink" width="200" height="200"><path d="M861.323636 1001.890909H162.443636c-38.865455 0-70.283636-31.650909-70.283636-70.283636V437.294545h69.818182v494.08l699.578182 0.465455 0.465454-494.545455h69.818182v494.08c-0.232727 38.865455-31.650909 70.516364-70.516364 70.516364z" p-id="1399"></path><path d="M856.203636 483.84c-45.847273 0-87.04-17.454545-114.501818-44.916364-27.461818 27.461818-68.654545 44.916364-114.501818 44.916364s-87.04-17.454545-114.501818-44.916364c-27.461818 27.461818-68.654545 44.916364-114.501818 44.916364-46.545455 0-88.436364-17.454545-116.130909-45.149091-27.461818 27.694545-68.654545 45.149091-114.734546 45.149091-82.385455 0-149.410909-56.32-149.410909-125.44l1.163636-15.127273L107.985455 6.981818h807.563636l89.832727 345.367273v6.283636c0.232727 68.887273-66.792727 125.207273-149.178182 125.207273z m-149.178181-125.44h69.818181c0 30.021818 36.538182 55.621818 79.592728 55.621818s79.592727-25.367273 79.592727-55.621818v-1.629091L862.021818 76.8H161.745455L87.970909 358.4c0 30.021818 36.538182 55.621818 79.592727 55.621818s79.592727-25.367273 79.592728-55.621818h69.818181c0 29.556364 38.167273 55.621818 81.454546 55.621818 43.054545 0 79.592727-25.367273 79.592727-55.621818h69.818182c0 30.021818 36.538182 55.621818 79.592727 55.621818 43.054545 0 79.592727-25.6 79.592728-55.621818z" p-id="1400"></path></svg>