<?xml version="1.0" standalone="no"?><!DOCTYPE svg PUBLIC "-//W3C//DTD SVG 1.1//EN" "http://www.w3.org/Graphics/SVG/1.1/DTD/svg11.dtd"><svg t="1668946576997" class="icon" viewBox="0 0 1024 1024" version="1.1" xmlns="http://www.w3.org/2000/svg" p-id="1247" xmlns:xlink="http://www.w3.org/1999/xlink" width="200" height="200"><path d="M512.355237 68.755595a202.943599 202.943599 0 1 1-143.492927 59.439213A201.602865 201.602865 0 0 1 512.355237 68.755595m0-68.755595C362.30761 0 240.667502 121.640107 240.667502 271.699194s121.640107 271.687735 271.687735 271.687735 271.699194-121.640107 271.699195-271.687735S662.368487 0 512.355237 0zM766.762399 647.769382a160.429722 160.429722 0 0 1 155.353268 120.425426l32.223456 125.100805a49.595703 49.595703 0 0 1-48.025784 61.948792H118.397135a49.572784 49.572784 0 0 1-48.014324-61.948792l32.211997-125.100805a160.429722 160.429722 0 0 1 155.364726-120.425426h508.791406m0-68.755595h-508.791406A229.185318 229.185318 0 0 0 36.016473 751.051746L3.804476 876.141092c-19.285944 74.897762 37.265533 147.82453 114.592659 147.82453H906.313339c77.338585 0 133.890063-72.961146 114.592659-147.82453l-32.200537-125.089346a229.185318 229.185318 0 0 0-221.943062-172.037959z" p-id="1248"></path></svg>