<?xml version="1.0" standalone="no"?><!DOCTYPE svg PUBLIC "-//W3C//DTD SVG 1.1//EN" "http://www.w3.org/Graphics/SVG/1.1/DTD/svg11.dtd"><svg t="1668963502167" class="icon" viewBox="0 0 1024 1024" version="1.1" xmlns="http://www.w3.org/2000/svg" p-id="1107" xmlns:xlink="http://www.w3.org/1999/xlink" width="200" height="200"><path d="M986.530909 1022.370909c-8.843636 0-17.92-3.490909-24.669091-10.24L710.749091 761.018182c-13.730909-13.730909-13.730909-35.84 0-49.338182s35.84-13.730909 49.338182 0l251.112727 251.112727c13.730909 13.730909 13.730909 35.84 0 49.338182-6.749091 6.749091-15.592727 10.24-24.669091 10.24z" p-id="1108"></path><path d="M442.181818 69.818182c205.265455 0 372.363636 167.098182 372.363637 372.363636s-167.098182 372.363636-372.363637 372.363637S69.818182 647.447273 69.818182 442.181818 236.916364 69.818182 442.181818 69.818182m0-69.818182C198.050909 0 0 198.050909 0 442.181818s198.050909 442.181818 442.181818 442.181818 442.181818-198.050909 442.181818-442.181818S686.312727 0 442.181818 0z" p-id="1109"></path></svg>