<?xml version="1.0" standalone="no"?><!DOCTYPE svg PUBLIC "-//W3C//DTD SVG 1.1//EN" "http://www.w3.org/Graphics/SVG/1.1/DTD/svg11.dtd"><svg t="1669024477831" class="icon" viewBox="0 0 1024 1024" version="1.1" xmlns="http://www.w3.org/2000/svg" p-id="1111" xmlns:xlink="http://www.w3.org/1999/xlink" width="200" height="200"><path d="M350.952727 896.698182c-28.858182 0-52.363636 23.505455-52.363636 52.363636s23.505455 52.363636 52.363636 52.363637 52.363636-23.505455 52.363637-52.363637-23.505455-52.363636-52.363637-52.363636zM787.316364 896.698182c-28.858182 0-52.363636 23.505455-52.363637 52.363636s23.505455 52.363636 52.363637 52.363637 52.363636-23.505455 52.363636-52.363637-23.505455-52.363636-52.363636-52.363636zM935.098182 884.363636H227.374545c-17.92 0-33.047273-13.730909-34.676363-31.650909L121.716364 95.650909H35.84c-19.316364 0-34.909091-15.592727-34.909091-34.909091s15.592727-34.909091 34.909091-34.909091h117.527273c17.92 0 33.047273 13.730909 34.676363 31.650909l15.127273 160.116364c1.396364-0.232727 2.792727-0.465455 3.956364-0.465455h775.912727a34.769455 34.769455 0 0 1 34.676364 37.701819l-47.941819 597.410909c-1.396364 18.152727-16.523636 32.116364-34.676363 32.116363z m-675.84-69.818181H902.981818l42.356364-527.592728H209.687273L259.258182 814.545455z" p-id="1112" fill="#8992a4"></path></svg>